<mxfile host="app.diagrams.net" modified="2020-12-16T23:05:05.268Z" agent="5.0 (Windows NT 10.0; Win64; x64) AppleWebKit/537.36 (KHTML, like Gecko) Chrome/87.0.4280.88 Safari/537.36" etag="k-4nRxoDtqluWcYdf83Q" version="14.0.4" type="github">
  <diagram id="R2lEEEUBdFMjLlhIrx00" name="Page-1">
    <mxGraphModel dx="2062" dy="1154" grid="1" gridSize="10" guides="1" tooltips="1" connect="1" arrows="1" fold="1" page="1" pageScale="1" pageWidth="850" pageHeight="1100" math="0" shadow="0" extFonts="Permanent Marker^https://fonts.googleapis.com/css?family=Permanent+Marker">
      <root>
        <mxCell id="0" />
        <mxCell id="1" parent="0" />
        <mxCell id="J0ZYUV3fHZEBU9DsVcbB-16" value="" style="edgeStyle=entityRelationEdgeStyle;fontSize=12;html=1;endArrow=ERmany;exitX=0;exitY=0.5;exitDx=0;exitDy=0;entryX=1;entryY=0.5;entryDx=0;entryDy=0;" edge="1" parent="1" source="J0ZYUV3fHZEBU9DsVcbB-8" target="J0ZYUV3fHZEBU9DsVcbB-7">
          <mxGeometry width="100" height="100" relative="1" as="geometry">
            <mxPoint x="180" y="270" as="sourcePoint" />
            <mxPoint x="280" y="170" as="targetPoint" />
          </mxGeometry>
        </mxCell>
        <mxCell id="J0ZYUV3fHZEBU9DsVcbB-4" value="User" style="swimlane;fontStyle=0;childLayout=stackLayout;horizontal=1;startSize=26;horizontalStack=0;resizeParent=1;resizeParentMax=0;resizeLast=0;collapsible=1;marginBottom=0;align=center;fontSize=14;" vertex="1" parent="1">
          <mxGeometry x="100" y="10" width="160" height="120" as="geometry" />
        </mxCell>
        <mxCell id="J0ZYUV3fHZEBU9DsVcbB-5" value="Name" style="text;strokeColor=none;fillColor=none;spacingLeft=4;spacingRight=4;overflow=hidden;rotatable=0;points=[[0,0.5],[1,0.5]];portConstraint=eastwest;fontSize=12;" vertex="1" parent="J0ZYUV3fHZEBU9DsVcbB-4">
          <mxGeometry y="26" width="160" height="30" as="geometry" />
        </mxCell>
        <mxCell id="J0ZYUV3fHZEBU9DsVcbB-7" value="Comments" style="text;strokeColor=none;fillColor=none;spacingLeft=4;spacingRight=4;overflow=hidden;rotatable=0;points=[[0,0.5],[1,0.5]];portConstraint=eastwest;fontSize=12;" vertex="1" parent="J0ZYUV3fHZEBU9DsVcbB-4">
          <mxGeometry y="56" width="160" height="34" as="geometry" />
        </mxCell>
        <mxCell id="J0ZYUV3fHZEBU9DsVcbB-6" value="Posts" style="text;strokeColor=none;fillColor=none;spacingLeft=4;spacingRight=4;overflow=hidden;rotatable=0;points=[[0,0.5],[1,0.5]];portConstraint=eastwest;fontSize=12;" vertex="1" parent="J0ZYUV3fHZEBU9DsVcbB-4">
          <mxGeometry y="90" width="160" height="30" as="geometry" />
        </mxCell>
        <mxCell id="J0ZYUV3fHZEBU9DsVcbB-8" value="Creates" style="shape=rhombus;perimeter=rhombusPerimeter;whiteSpace=wrap;html=1;align=center;" vertex="1" parent="1">
          <mxGeometry x="330" y="250" width="120" height="60" as="geometry" />
        </mxCell>
        <mxCell id="J0ZYUV3fHZEBU9DsVcbB-9" value="Article" style="swimlane;fontStyle=0;childLayout=stackLayout;horizontal=1;startSize=26;horizontalStack=0;resizeParent=1;resizeParentMax=0;resizeLast=0;collapsible=1;marginBottom=0;align=center;fontSize=14;" vertex="1" parent="1">
          <mxGeometry x="510" y="400" width="160" height="150" as="geometry">
            <mxRectangle x="510" y="400" width="70" height="26" as="alternateBounds" />
          </mxGeometry>
        </mxCell>
        <mxCell id="J0ZYUV3fHZEBU9DsVcbB-10" value="Name" style="text;strokeColor=none;fillColor=none;spacingLeft=4;spacingRight=4;overflow=hidden;rotatable=0;points=[[0,0.5],[1,0.5]];portConstraint=eastwest;fontSize=12;" vertex="1" parent="J0ZYUV3fHZEBU9DsVcbB-9">
          <mxGeometry y="26" width="160" height="30" as="geometry" />
        </mxCell>
        <mxCell id="J0ZYUV3fHZEBU9DsVcbB-11" value="Creator" style="text;strokeColor=none;fillColor=none;spacingLeft=4;spacingRight=4;overflow=hidden;rotatable=0;points=[[0,0.5],[1,0.5]];portConstraint=eastwest;fontSize=12;" vertex="1" parent="J0ZYUV3fHZEBU9DsVcbB-9">
          <mxGeometry y="56" width="160" height="30" as="geometry" />
        </mxCell>
        <mxCell id="J0ZYUV3fHZEBU9DsVcbB-12" value="Body" style="text;strokeColor=none;fillColor=none;spacingLeft=4;spacingRight=4;overflow=hidden;rotatable=0;points=[[0,0.5],[1,0.5]];portConstraint=eastwest;fontSize=12;" vertex="1" parent="J0ZYUV3fHZEBU9DsVcbB-9">
          <mxGeometry y="86" width="160" height="34" as="geometry" />
        </mxCell>
        <mxCell id="J0ZYUV3fHZEBU9DsVcbB-37" value="Upvotes" style="text;strokeColor=none;fillColor=none;spacingLeft=4;spacingRight=4;overflow=hidden;rotatable=0;points=[[0,0.5],[1,0.5]];portConstraint=eastwest;fontSize=12;fontStyle=2" vertex="1" parent="J0ZYUV3fHZEBU9DsVcbB-9">
          <mxGeometry y="120" width="160" height="30" as="geometry" />
        </mxCell>
        <mxCell id="J0ZYUV3fHZEBU9DsVcbB-17" value="" style="edgeStyle=entityRelationEdgeStyle;fontSize=14;html=1;endArrow=ERzeroToMany;endFill=1;exitX=1;exitY=0.5;exitDx=0;exitDy=0;labelPosition=center;verticalLabelPosition=middle;align=center;verticalAlign=middle;entryX=0;entryY=0.5;entryDx=0;entryDy=0;" edge="1" parent="1" source="J0ZYUV3fHZEBU9DsVcbB-8" target="J0ZYUV3fHZEBU9DsVcbB-11">
          <mxGeometry width="100" height="100" relative="1" as="geometry">
            <mxPoint x="550" y="370" as="sourcePoint" />
            <mxPoint x="640" y="278" as="targetPoint" />
          </mxGeometry>
        </mxCell>
        <mxCell id="J0ZYUV3fHZEBU9DsVcbB-22" value="" style="edgeStyle=entityRelationEdgeStyle;fontSize=12;html=1;endArrow=ERoneToMany;exitX=1;exitY=0.5;exitDx=0;exitDy=0;" edge="1" parent="1" source="J0ZYUV3fHZEBU9DsVcbB-11" target="J0ZYUV3fHZEBU9DsVcbB-40">
          <mxGeometry width="100" height="100" relative="1" as="geometry">
            <mxPoint x="370" y="640" as="sourcePoint" />
            <mxPoint x="670" y="711" as="targetPoint" />
          </mxGeometry>
        </mxCell>
        <mxCell id="J0ZYUV3fHZEBU9DsVcbB-39" value="Comment" style="swimlane;fontStyle=0;childLayout=stackLayout;horizontal=1;startSize=26;horizontalStack=0;resizeParent=1;resizeParentMax=0;resizeLast=0;collapsible=1;marginBottom=0;align=center;fontSize=14;" vertex="1" parent="1">
          <mxGeometry x="520" y="690" width="160" height="150" as="geometry">
            <mxRectangle x="510" y="400" width="70" height="26" as="alternateBounds" />
          </mxGeometry>
        </mxCell>
        <mxCell id="J0ZYUV3fHZEBU9DsVcbB-40" value="Article" style="text;strokeColor=none;fillColor=none;spacingLeft=4;spacingRight=4;overflow=hidden;rotatable=0;points=[[0,0.5],[1,0.5]];portConstraint=eastwest;fontSize=12;" vertex="1" parent="J0ZYUV3fHZEBU9DsVcbB-39">
          <mxGeometry y="26" width="160" height="30" as="geometry" />
        </mxCell>
        <mxCell id="J0ZYUV3fHZEBU9DsVcbB-41" value="Creator" style="text;strokeColor=none;fillColor=none;spacingLeft=4;spacingRight=4;overflow=hidden;rotatable=0;points=[[0,0.5],[1,0.5]];portConstraint=eastwest;fontSize=12;" vertex="1" parent="J0ZYUV3fHZEBU9DsVcbB-39">
          <mxGeometry y="56" width="160" height="30" as="geometry" />
        </mxCell>
        <mxCell id="J0ZYUV3fHZEBU9DsVcbB-42" value="Body" style="text;strokeColor=none;fillColor=none;spacingLeft=4;spacingRight=4;overflow=hidden;rotatable=0;points=[[0,0.5],[1,0.5]];portConstraint=eastwest;fontSize=12;" vertex="1" parent="J0ZYUV3fHZEBU9DsVcbB-39">
          <mxGeometry y="86" width="160" height="34" as="geometry" />
        </mxCell>
        <mxCell id="J0ZYUV3fHZEBU9DsVcbB-43" value="Upvotes" style="text;strokeColor=none;fillColor=none;spacingLeft=4;spacingRight=4;overflow=hidden;rotatable=0;points=[[0,0.5],[1,0.5]];portConstraint=eastwest;fontSize=12;fontStyle=2" vertex="1" parent="J0ZYUV3fHZEBU9DsVcbB-39">
          <mxGeometry y="120" width="160" height="30" as="geometry" />
        </mxCell>
        <mxCell id="J0ZYUV3fHZEBU9DsVcbB-45" value="Creates" style="shape=rhombus;perimeter=rhombusPerimeter;whiteSpace=wrap;html=1;align=center;" vertex="1" parent="1">
          <mxGeometry x="100" y="735" width="120" height="60" as="geometry" />
        </mxCell>
        <mxCell id="J0ZYUV3fHZEBU9DsVcbB-46" value="" style="edgeStyle=entityRelationEdgeStyle;fontSize=14;html=1;endArrow=ERzeroToMany;endFill=1;exitX=1;exitY=0.5;exitDx=0;exitDy=0;labelPosition=center;verticalLabelPosition=middle;align=center;verticalAlign=middle;entryX=0;entryY=0.5;entryDx=0;entryDy=0;" edge="1" parent="1" source="J0ZYUV3fHZEBU9DsVcbB-45" target="J0ZYUV3fHZEBU9DsVcbB-41">
          <mxGeometry width="100" height="100" relative="1" as="geometry">
            <mxPoint x="410" y="657" as="sourcePoint" />
            <mxPoint x="370" y="758" as="targetPoint" />
          </mxGeometry>
        </mxCell>
        <mxCell id="J0ZYUV3fHZEBU9DsVcbB-44" value="" style="edgeStyle=entityRelationEdgeStyle;fontSize=12;html=1;endArrow=ERmany;exitX=0;exitY=0.5;exitDx=0;exitDy=0;entryX=0;entryY=0.5;entryDx=0;entryDy=0;" edge="1" parent="1" source="J0ZYUV3fHZEBU9DsVcbB-7" target="J0ZYUV3fHZEBU9DsVcbB-45">
          <mxGeometry width="100" height="100" relative="1" as="geometry">
            <mxPoint x="110" y="160" as="sourcePoint" />
            <mxPoint x="40" y="557" as="targetPoint" />
          </mxGeometry>
        </mxCell>
      </root>
    </mxGraphModel>
  </diagram>
</mxfile>
